<svg width="164" viewBox="30 35 150 65" fill="none" xmlns="http://www.w3.org/2000/svg">
<g filter="url(#filter0_d_268_62)">
<path d="M49.651 54.7178H39.6738V64.6949H49.651V54.7178Z" fill="#38E1FF"/>
<path d="M49.6514 64.691L59.6285 54.7139C69.4102 54.7139 69.6057 64.7424 69.6057 64.7424V74.6647L59.6285 84.6419V64.691H49.6514Z" fill="#38E1FF"/>
<path d="M49.651 84.6457H39.6738V74.6685L49.651 64.6914V84.6457Z" fill="#38E1FF"/>
<path d="M77.7209 70.6413C77.7209 73.5811 78.0643 75.7103 78.7512 77.0291C79.4655 78.3478 80.537 79.0072 81.9656 79.0072C83.4767 79.0072 84.8092 78.499 85.9632 77.4824C87.3643 76.2461 88.0649 74.5701 88.0649 72.4546H88.4358C88.4358 74.5152 87.7765 76.2048 86.4577 77.5236C85.1389 78.8424 83.3806 79.5018 81.1826 79.5018C79.3418 79.5018 77.6659 78.8012 76.1548 77.4C74.369 75.7515 73.4761 73.5948 73.4761 70.9298C73.4761 68.045 74.3553 65.6959 76.1136 63.8826C77.6522 62.3166 79.3831 61.5336 81.3063 61.5336C83.0921 61.5336 84.5757 62.0556 85.7571 63.0996C87.488 64.6382 88.3534 67.1521 88.3534 70.6413H77.7209ZM84.8917 70.1056C84.8917 67.468 84.6444 65.4624 84.1498 64.0887C83.6828 62.6875 82.9135 61.9869 81.842 61.9869C80.3309 61.9869 79.2594 62.6463 78.6275 63.9651C78.0231 65.2838 77.7209 67.3307 77.7209 70.1056H84.8917ZM97.5524 71.2745L92.6889 63.3766C92.3009 62.7392 91.8991 62.3235 91.4834 62.1295C91.0678 61.9356 90.2087 61.8386 88.9062 61.8386V61.3813H99.6723V61.8386C99.0627 61.8386 98.4114 61.8524 97.7186 61.8801C97.0536 61.9078 96.721 62.088 96.721 62.4205C96.721 62.6145 96.8596 62.9332 97.1367 63.3766L99.9217 67.9491L102 65.0393C102.499 64.2357 102.748 63.5983 102.748 63.1272C102.748 62.2681 101.986 61.8386 100.462 61.8386V61.3813H107.861V61.8386C106.115 61.8386 104.688 62.4621 103.58 63.7091C103.303 64.014 102.748 64.7622 101.917 65.9538L100.213 68.3647L105.658 77.1772C106.102 77.87 106.42 78.2718 106.614 78.3826C107.002 78.6043 107.847 78.7152 109.15 78.7152V79.1309H98.3837V78.7152C100.518 78.7152 101.584 78.4935 101.584 78.0501C101.584 77.8007 101.474 77.5097 101.252 77.1772L97.8018 71.6902L95.1414 75.3897C94.6703 76.0825 94.4348 76.6506 94.4348 77.094C94.4348 78.1748 95.5294 78.7152 97.7186 78.7152V79.1309H88.9062V78.7152C89.9039 78.7152 90.9431 78.3688 92.0238 77.676C93.1323 76.9832 94.1299 76.0271 95.0167 74.8078L97.5524 71.2745ZM122.564 64.1299C122.564 63.498 122.482 63.0859 122.317 62.8936C122.18 62.6738 121.932 62.5364 121.575 62.4814C121.245 62.4265 120.133 62.399 118.237 62.399V61.9869L126.438 61.5336V75.5043C126.438 75.8614 126.438 76.2186 126.438 76.5758C126.466 76.9329 126.534 77.1939 126.644 77.3588L126.891 77.7709C127.166 77.9632 128.21 78.0594 130.024 78.0594V78.4715L122.564 79.1309V73.897C122.399 75.0235 121.987 76.0675 121.328 77.0291C120.476 78.2654 119.432 78.9523 118.196 79.0896C118.031 79.1171 117.866 79.1309 117.701 79.1309H117.207C115.586 79.1309 114.322 78.6226 113.415 77.606C112.646 76.7543 112.261 75.724 112.261 74.5152V63.759C112.261 63.2645 112.193 62.9348 112.055 62.7699C111.945 62.5776 111.767 62.4677 111.52 62.4402C111.272 62.4128 110.627 62.399 109.583 62.399H108.635V61.9869L116.135 61.5336V75.0921C116.135 76.4933 116.3 77.4412 116.63 77.9357C116.987 78.4303 117.495 78.6775 118.155 78.6775C119.391 78.6775 120.435 77.9357 121.287 76.4521C122.138 74.9685 122.564 73.3613 122.564 71.6304V64.1299ZM140.923 62.8111C141.995 62.0144 142.558 61.5885 142.613 61.5336V67.7153L142.242 67.6329C141.857 65.9844 141.171 64.6382 140.181 63.5941C139.11 62.4677 137.929 61.9045 136.637 61.9045C135.648 61.9045 134.838 62.0968 134.206 62.4814C133.354 63.0035 132.928 63.8689 132.928 65.0778C132.928 66.0668 133.395 66.8361 134.329 67.3856C134.989 67.7702 136.308 68.1961 138.286 68.6632C140.264 69.1302 141.651 69.6797 142.448 70.3116C143.575 71.1908 144.138 72.592 144.138 74.5152C144.138 76.301 143.533 77.6198 142.324 78.4715C141.363 79.1583 140.154 79.5018 138.698 79.5018C137.489 79.5018 136.624 79.4193 136.102 79.2545C135.332 79.0072 134.494 78.4165 133.588 77.4824C132.489 78.7737 131.912 79.4468 131.857 79.5018V72.2073H132.145C132.612 73.9107 132.997 75.0921 133.299 75.7515C133.711 76.6582 134.151 77.3313 134.618 77.7709C135.25 78.3753 135.841 78.76 136.39 78.9248C136.967 79.0622 137.819 79.1309 138.945 79.1309C139.797 79.1309 140.497 78.9111 141.047 78.4715C141.706 77.9495 142.036 77.2077 142.036 76.2461C142.036 75.0097 141.596 74.0893 140.717 73.4849C140.03 73.0178 138.808 72.6057 137.049 72.2485C135.319 71.8914 133.972 71.3144 133.011 70.5177C131.857 69.5561 131.28 68.2785 131.28 66.685C131.28 65.2563 131.761 64.0475 132.722 63.0584C133.711 62.0419 134.906 61.5336 136.308 61.5336C137.379 61.5336 138.313 61.7122 139.11 62.0693C140.154 62.5364 140.758 62.7837 140.923 62.8111ZM159.948 46.1617V50.2829H153.766V46.1617H159.948ZM149.645 50.2829H153.766V58.5251H157.887V62.6463H153.766V79.1309H149.645V62.6463H145.524V58.5251H149.645V50.2829ZM166.13 52.3434V56.4646H162.008V52.3434H166.13ZM162.008 58.5251H166.13V79.1309H162.008V58.5251Z" fill="#38E1FF"/>
</g>
<defs>
<filter id="filter0_d_268_62" x="-29.2" y="-12.2" width="270.971" height="154.4" filterUnits="userSpaceOnUse" color-interpolation-filters="sRGB">
<feFlood flood-opacity="0" result="BackgroundImageFix"/>
<feColorMatrix in="SourceAlpha" type="matrix" values="0 0 0 0 0 0 0 0 0 0 0 0 0 0 0 0 0 0 127 0" result="hardAlpha"/>
<feOffset/>
<feGaussianBlur stdDeviation="26.6"/>
<feColorMatrix type="matrix" values="0 0 0 0 0 0 0 0 0 0 0 0 0 0 0 0 0 0 0.25 0"/>
<feBlend mode="normal" in2="BackgroundImageFix" result="effect1_dropShadow_268_62"/>
<feBlend mode="normal" in="SourceGraphic" in2="effect1_dropShadow_268_62" result="shape"/>
</filter>
</defs>
</svg>
